<?xml version="1.0" encoding="utf-8"?>
<!-- Generator: Adobe Illustrator 24.0.3, SVG Export Plug-In . SVG Version: 6.00 Build 0)  -->
<svg version="1.1" id="Layer_1" xmlns="http://www.w3.org/2000/svg" xmlns:xlink="http://www.w3.org/1999/xlink" x="0px" y="0px"
	 viewBox="0 0 420 64" style="enable-background:new 0 0 420 64;" xml:space="preserve">
<style type="text/css">
	.st0{fill:#FFFFFF;}
</style>
<path class="st0" d="M42.01,49.24H13.8c-0.78,0-1.41,0.63-1.41,1.41v2.82c0,0.78,0.63,1.41,1.41,1.41h28.21
	c0.78,0,1.41-0.63,1.41-1.41v-2.82C43.42,49.87,42.79,49.24,42.01,49.24z M60.34,21.03V16.8c0-0.78-0.63-1.41-1.41-1.41
	s-1.41,0.63-1.41,1.41v4.23H54.7V16.8c0-0.78-0.63-1.41-1.41-1.41c-0.78,0-1.41,0.63-1.41,1.41v4.23h-1.41
	c-0.78,0-1.41,0.63-1.41,1.41v2.82c0,3.15,2.08,5.79,4.94,6.69V42.4c0,1.23-0.84,2.37-2.05,2.57c-1.54,0.25-2.89-0.94-2.89-2.43
	v-2.47c0-4.28-3.47-7.76-7.76-7.76H40.6V15.39c0-3.12-2.53-5.64-5.64-5.64h-14.1c-3.12,0-5.64,2.53-5.64,5.64v31.03H40.6v-9.87h0.71
	c1.95,0,3.53,1.58,3.53,3.53v2.17c0,3.5,2.55,6.62,6.03,6.96c3.99,0.39,7.37-2.75,7.37-6.67V31.96c2.85-0.9,4.94-3.54,4.94-6.69
	v-2.82c0-0.78-0.63-1.41-1.41-1.41H60.34z M35.32,25.24L27.06,37.5c-0.19,0.29-0.55,0.46-0.92,0.46c-0.68,0-1.19-0.55-1.03-1.14
	l2.03-7.32h-5.23c-0.64,0-1.13-0.49-1.05-1.05l1.41-9.43c0.07-0.46,0.52-0.8,1.05-0.8h5.99c0.69,0,1.2,0.58,1.02,1.16l-1.02,4.48
	h5.09C35.22,23.85,35.72,24.63,35.32,25.24z"/>
<g>
	<g>
		<path class="st0" d="M84.63,46.11c-2.45,0-4.49-0.54-6.13-1.61c-1.64-1.07-2.87-2.54-3.69-4.41c-0.82-1.87-1.23-3.98-1.23-6.35
			v-0.35c0-2.39,0.43-4.52,1.29-6.38c0.86-1.86,2.1-3.33,3.7-4.4c1.61-1.07,3.53-1.61,5.77-1.61c1.58,0,3.02,0.25,4.32,0.74
			c1.31,0.49,2.39,1.12,3.25,1.88v5.26h-2.63l-0.35-3.86c-0.36-0.28-0.77-0.51-1.23-0.7c-0.46-0.19-0.98-0.33-1.54-0.44
			c-0.56-0.1-1.18-0.15-1.84-0.15c-1.6,0-2.95,0.41-4.06,1.23s-1.94,1.95-2.51,3.39c-0.57,1.44-0.85,3.11-0.85,5v0.39
			c0,2.04,0.3,3.79,0.91,5.24c0.61,1.45,1.5,2.55,2.67,3.31c1.17,0.76,2.59,1.14,4.27,1.14c0.78,0,1.55-0.09,2.3-0.29
			c0.75-0.19,1.37-0.44,1.86-0.74l0.37-3.4h2.58v5.3c-0.92,0.57-2.01,1.01-3.29,1.33S85.99,46.11,84.63,46.11z"/>
		<path class="st0" d="M94.69,45.76v-2.11l2.73-0.47V22.21l-2.73-0.47v-2.13h6.03v10.43c0.63-0.87,1.39-1.55,2.3-2.03
			s1.91-0.72,3.02-0.72c1.94,0,3.45,0.58,4.53,1.74c1.07,1.16,1.61,2.95,1.61,5.36v8.78l2.73,0.47v2.11h-8.77v-2.11l2.73-0.47v-8.82
			c0-1.5-0.32-2.6-0.96-3.32c-0.64-0.71-1.6-1.07-2.87-1.07c-0.91,0-1.73,0.22-2.47,0.65s-1.35,1.01-1.84,1.75v10.81l2.73,0.47v2.11
			H94.69z"/>
		<path class="st0" d="M123.02,46.11c-1.89,0-3.32-0.46-4.31-1.38s-1.48-2.22-1.48-3.9c0-1.15,0.32-2.15,0.95-3.01
			c0.63-0.85,1.54-1.52,2.74-1.99c1.2-0.48,2.63-0.71,4.29-0.71h3.24v-1.78c0-1.1-0.33-1.94-1-2.55c-0.67-0.6-1.6-0.9-2.81-0.9
			c-0.76,0-1.42,0.09-1.98,0.28c-0.56,0.18-1.07,0.44-1.53,0.76l-0.35,2.53h-2.55V29.3c0.82-0.66,1.77-1.16,2.85-1.5
			s2.29-0.51,3.6-0.51c2.2,0,3.93,0.53,5.18,1.58c1.25,1.05,1.88,2.55,1.88,4.51v8.73c0,0.23,0,0.46,0.01,0.69
			c0.01,0.22,0.02,0.45,0.04,0.67l1.76,0.18v2.11h-4.74c-0.1-0.49-0.18-0.93-0.23-1.32c-0.06-0.39-0.09-0.78-0.12-1.17
			c-0.64,0.82-1.43,1.5-2.39,2.04S124.1,46.11,123.02,46.11z M123.51,43.34c1.1,0,2.1-0.26,3-0.79c0.91-0.52,1.55-1.16,1.94-1.89
			v-3.29h-3.35c-1.52,0-2.66,0.36-3.42,1.09c-0.76,0.73-1.14,1.54-1.14,2.43c0,0.79,0.25,1.4,0.74,1.82
			C121.77,43.13,122.51,43.34,123.51,43.34z"/>
		<path class="st0" d="M136.1,45.76v-2.11l2.73-0.47V30.22l-2.73-0.47v-2.13h5.68l0.28,2.31l0.03,0.32c0.51-0.93,1.15-1.65,1.9-2.18
			c0.75-0.52,1.62-0.79,2.59-0.79c0.35,0,0.7,0.03,1.06,0.09c0.36,0.06,0.62,0.12,0.78,0.18L148,30.62l-2.3-0.13
			c-0.87-0.06-1.6,0.14-2.2,0.59c-0.59,0.45-1.05,1.06-1.38,1.82v10.28l2.73,0.47v2.11H136.1z"/>
		<path class="st0" d="M158.41,53.08c-0.87,0-1.82-0.12-2.83-0.36s-1.91-0.57-2.68-0.98l0.85-2.56c0.61,0.32,1.34,0.59,2.18,0.8
			c0.84,0.21,1.65,0.32,2.45,0.32c1.48,0,2.56-0.41,3.24-1.24c0.69-0.83,1.03-2.01,1.03-3.54V43.8c-0.59,0.76-1.3,1.33-2.13,1.73
			c-0.83,0.39-1.78,0.59-2.85,0.59c-1.48,0-2.75-0.37-3.82-1.1c-1.07-0.73-1.9-1.75-2.47-3.07c-0.58-1.31-0.86-2.84-0.86-4.57v-0.35
			c0-1.94,0.29-3.65,0.86-5.11c0.58-1.46,1.4-2.6,2.47-3.41c1.07-0.81,2.36-1.22,3.86-1.22c1.14,0,2.14,0.22,3,0.67
			s1.58,1.1,2.16,1.94l0.3-2.28h2.78v17.9c0,1.56-0.29,2.91-0.88,4.04c-0.59,1.13-1.44,2-2.56,2.61
			C161.38,52.78,160.02,53.08,158.41,53.08z M158.49,43.43c0.99,0,1.83-0.23,2.5-0.68c0.67-0.45,1.22-1.09,1.66-1.92v-8.35
			c-0.43-0.77-0.98-1.38-1.66-1.84s-1.5-0.68-2.46-0.68c-1.05,0-1.92,0.3-2.62,0.91c-0.7,0.6-1.22,1.43-1.57,2.49
			c-0.35,1.06-0.52,2.28-0.52,3.66v0.35c0,1.82,0.39,3.29,1.16,4.39C155.74,42.87,156.92,43.43,158.49,43.43z M165.45,30.32
			l-1.29-2.7h4.04v2.11L165.45,30.32z"/>
		<path class="st0" d="M178.1,46.11c-1.68,0-3.13-0.38-4.38-1.15s-2.2-1.83-2.88-3.19s-1.01-2.94-1.01-4.73V36.3
			c0-1.72,0.35-3.26,1.06-4.62c0.71-1.36,1.65-2.43,2.83-3.22c1.18-0.79,2.47-1.18,3.86-1.18c1.63,0,3,0.34,4.1,1.01
			c1.1,0.67,1.93,1.61,2.49,2.82c0.56,1.21,0.84,2.64,0.84,4.28v2.06h-11.77l-0.05,0.08c0.02,1.16,0.23,2.19,0.61,3.09
			c0.39,0.9,0.94,1.61,1.67,2.12c0.73,0.51,1.6,0.77,2.61,0.77c1.12,0,2.1-0.16,2.94-0.48s1.57-0.76,2.19-1.32l1.29,2.15
			c-0.65,0.63-1.51,1.15-2.57,1.58C180.88,45.89,179.6,46.11,178.1,46.11z M173.36,34.88h8.36v-0.44c0-0.87-0.15-1.65-0.46-2.34
			c-0.31-0.69-0.77-1.23-1.37-1.63c-0.61-0.4-1.37-0.59-2.29-0.59c-0.74,0-1.41,0.22-2.01,0.65c-0.6,0.43-1.1,1.01-1.49,1.75
			s-0.65,1.58-0.77,2.51L173.36,34.88z"/>
		<path class="st0" d="M205.04,46.11c-1.49,0-2.92-0.22-4.29-0.65s-2.69-1.11-3.94-2.01v-5.21h2.56l0.55,3.84
			c0.73,0.45,1.51,0.79,2.36,1.04c0.85,0.25,1.77,0.37,2.75,0.37c1.12,0,2.06-0.17,2.84-0.51c0.78-0.34,1.37-0.81,1.79-1.42
			c0.41-0.6,0.62-1.31,0.62-2.11c0-0.75-0.18-1.41-0.54-1.98c-0.36-0.57-0.95-1.07-1.77-1.5c-0.82-0.43-1.94-0.81-3.36-1.13
			c-1.68-0.39-3.09-0.91-4.25-1.57c-1.16-0.65-2.03-1.45-2.63-2.38c-0.6-0.93-0.9-2-0.9-3.21c0-1.27,0.34-2.41,1.01-3.42
			c0.68-1.01,1.62-1.8,2.82-2.38S203.3,21,204.91,21c1.71,0,3.22,0.26,4.53,0.78s2.39,1.15,3.24,1.89v4.88h-2.56l-0.55-3.49
			c-0.5-0.4-1.13-0.74-1.88-1.01c-0.75-0.27-1.68-0.4-2.78-0.4c-0.94,0-1.77,0.17-2.48,0.49c-0.71,0.33-1.27,0.79-1.68,1.38
			c-0.4,0.59-0.6,1.29-0.6,2.1c0,0.7,0.18,1.32,0.54,1.84c0.36,0.53,0.96,0.99,1.78,1.38c0.82,0.4,1.92,0.77,3.29,1.11
			c2.57,0.64,4.52,1.58,5.84,2.82c1.32,1.25,1.99,2.79,1.99,4.62c0,1.31-0.35,2.47-1.06,3.48c-0.7,1.01-1.7,1.8-2.98,2.37
			C208.28,45.82,206.77,46.11,205.04,46.11z"/>
		<path class="st0" d="M222.74,46.04c-1.34,0-2.41-0.39-3.19-1.18c-0.79-0.79-1.18-2.05-1.18-3.78V30.07h-2.87v-2.45h2.87v-4.38h3.3
			v4.38h3.94v2.45h-3.94v11.01c0,0.87,0.17,1.51,0.52,1.93c0.35,0.41,0.81,0.62,1.39,0.62c0.39,0,0.83-0.04,1.31-0.11
			c0.48-0.07,0.86-0.14,1.12-0.19l0.45,2.16c-0.48,0.15-1.07,0.27-1.77,0.39C224,45.99,223.35,46.04,222.74,46.04z"/>
		<path class="st0" d="M234.44,46.11c-1.89,0-3.33-0.46-4.31-1.38c-0.98-0.92-1.48-2.22-1.48-3.9c0-1.15,0.32-2.15,0.95-3.01
			c0.63-0.85,1.54-1.52,2.74-1.99c1.2-0.48,2.63-0.71,4.29-0.71h3.23v-1.78c0-1.1-0.33-1.94-1-2.55c-0.67-0.6-1.6-0.9-2.81-0.9
			c-0.76,0-1.42,0.09-1.98,0.28c-0.56,0.18-1.07,0.44-1.53,0.76l-0.35,2.53h-2.55V29.3c0.82-0.66,1.77-1.16,2.85-1.5
			s2.29-0.51,3.6-0.51c2.2,0,3.93,0.53,5.18,1.58c1.25,1.05,1.88,2.55,1.88,4.51v8.73c0,0.23,0,0.46,0.01,0.69
			c0.01,0.22,0.02,0.45,0.04,0.67l1.76,0.18v2.11h-4.74c-0.1-0.49-0.18-0.93-0.23-1.32c-0.06-0.39-0.1-0.78-0.12-1.17
			c-0.64,0.82-1.43,1.5-2.39,2.04C236.55,45.84,235.53,46.11,234.44,46.11z M234.93,43.34c1.09,0,2.09-0.26,3-0.79
			c0.91-0.52,1.55-1.16,1.94-1.89v-3.29h-3.35c-1.52,0-2.66,0.36-3.42,1.09c-0.76,0.73-1.14,1.54-1.14,2.43
			c0,0.79,0.25,1.4,0.74,1.82C233.19,43.13,233.93,43.34,234.93,43.34z"/>
		<path class="st0" d="M253.95,46.04c-1.34,0-2.41-0.39-3.19-1.18c-0.79-0.79-1.18-2.05-1.18-3.78V30.07h-2.87v-2.45h2.87v-4.38h3.3
			v4.38h3.94v2.45h-3.94v11.01c0,0.87,0.17,1.51,0.52,1.93c0.35,0.41,0.81,0.62,1.39,0.62c0.39,0,0.83-0.04,1.31-0.11
			c0.48-0.07,0.86-0.14,1.12-0.19l0.45,2.16c-0.48,0.15-1.07,0.27-1.77,0.39S254.56,46.04,253.95,46.04z"/>
		<path class="st0" d="M259.67,45.76v-2.11l2.73-0.47V30.22l-2.73-0.47v-2.13h6.03v15.56l2.73,0.47v2.11H259.67z M262.23,23.14
			v-3.54h3.47v3.54H262.23z"/>
		<path class="st0" d="M278.91,46.11c-1.68,0-3.12-0.39-4.33-1.18c-1.21-0.79-2.15-1.88-2.81-3.27c-0.66-1.39-0.99-2.98-0.99-4.77
			v-0.37c0-1.79,0.33-3.38,0.99-4.77c0.66-1.39,1.59-2.48,2.81-3.28c1.21-0.79,2.65-1.19,4.3-1.19c1.68,0,3.12,0.4,4.33,1.19
			c1.21,0.79,2.15,1.88,2.81,3.27c0.66,1.39,0.99,2.98,0.99,4.78v0.37c0,1.8-0.33,3.39-0.99,4.79c-0.66,1.39-1.59,2.48-2.8,3.26
			S280.58,46.11,278.91,46.11z M278.91,43.53c1.05,0,1.93-0.29,2.64-0.86c0.71-0.58,1.25-1.36,1.61-2.36s0.54-2.14,0.54-3.41v-0.37
			c0-1.27-0.18-2.41-0.54-3.41s-0.9-1.79-1.62-2.36c-0.72-0.58-1.6-0.86-2.67-0.86c-1.05,0-1.93,0.29-2.65,0.86
			c-0.71,0.58-1.25,1.36-1.61,2.36c-0.36,1-0.54,2.14-0.54,3.41v0.37c0,1.27,0.18,2.41,0.54,3.41c0.36,1,0.9,1.79,1.62,2.36
			C276.96,43.24,277.85,43.53,278.91,43.53z"/>
		<path class="st0" d="M289.56,45.76v-2.11l2.73-0.47V30.22l-2.73-0.47v-2.13h5.68l0.23,2.7c0.6-0.96,1.36-1.71,2.27-2.24
			s1.95-0.8,3.11-0.8c1.96,0,3.47,0.57,4.54,1.72c1.07,1.15,1.61,2.91,1.61,5.31v8.87l2.73,0.47v2.11h-8.77v-2.11l2.73-0.47v-8.8
			c0-1.6-0.32-2.73-0.95-3.4c-0.63-0.67-1.6-1.01-2.89-1.01c-0.95,0-1.79,0.23-2.52,0.69c-0.73,0.46-1.32,1.08-1.75,1.88v10.64
			l2.73,0.47v2.11H289.56z"/>
		<path class="st0" d="M319.41,46.11c-1.22,0-2.36-0.12-3.42-0.37c-1.06-0.25-2.19-0.63-3.39-1.14l-0.03-4.31h2.5l0.62,2.6
			c0.63,0.26,1.23,0.44,1.82,0.56s1.22,0.18,1.9,0.18c1.34,0,2.3-0.26,2.88-0.77c0.58-0.51,0.87-1.15,0.87-1.91
			c0-0.72-0.29-1.32-0.88-1.82c-0.59-0.5-1.65-0.92-3.19-1.27c-2.19-0.5-3.8-1.18-4.84-2.02c-1.03-0.84-1.55-1.97-1.55-3.38
			c0-0.98,0.29-1.86,0.86-2.64c0.57-0.78,1.36-1.39,2.38-1.85c1.02-0.46,2.2-0.69,3.55-0.69c1.38,0,2.55,0.16,3.53,0.47
			c0.98,0.31,1.83,0.73,2.56,1.26l0.17,4.14h-2.48l-0.54-2.41c-0.39-0.29-0.85-0.51-1.39-0.67c-0.54-0.16-1.15-0.23-1.84-0.23
			c-1.03,0-1.86,0.24-2.51,0.72s-0.96,1.08-0.96,1.81c0,0.42,0.09,0.79,0.28,1.11c0.18,0.31,0.54,0.59,1.06,0.85s1.3,0.5,2.31,0.75
			c2.53,0.59,4.29,1.35,5.29,2.26c1,0.92,1.5,2.04,1.5,3.39c0,1.53-0.57,2.81-1.7,3.85C323.63,45.59,321.85,46.11,319.41,46.11z"/>
		<path class="st0" d="M337.67,45.76v-2.11l1.81-0.25l8.53-22.04h2.83l8.38,22.04l1.79,0.25v2.11h-7.01v-2.11l1.84-0.32l-1.61-4.49
			h-9.77l-1.66,4.49l1.84,0.32v2.11H337.67z M345.5,36.07h7.74l-3.59-9.92l-0.2-0.55h-0.1l-0.2,0.55L345.5,36.07z"/>
		<path class="st0" d="M362.93,52.73V50.6l2.56-0.47V30.22l-2.73-0.47v-2.13h5.56l0.3,2.21c0.6-0.83,1.34-1.46,2.21-1.89
			c0.87-0.44,1.87-0.65,3.01-0.65c1.5,0,2.78,0.41,3.84,1.22c1.06,0.81,1.87,1.94,2.43,3.4c0.56,1.46,0.84,3.17,0.84,5.12v0.35
			c0,1.74-0.28,3.27-0.85,4.58c-0.56,1.31-1.37,2.33-2.42,3.06c-1.05,0.73-2.31,1.1-3.79,1.1c-1.12,0-2.1-0.19-2.94-0.56
			c-0.84-0.37-1.56-0.93-2.15-1.67v6.25l2.88,0.47v2.13H362.93z M372.87,43.53c1.56,0,2.75-0.57,3.55-1.71s1.21-2.62,1.21-4.44
			v-0.35c0-1.38-0.18-2.61-0.54-3.66c-0.36-1.06-0.89-1.89-1.6-2.49c-0.71-0.6-1.59-0.91-2.66-0.91c-0.94,0-1.74,0.21-2.41,0.64
			s-1.21,1.01-1.63,1.74v8.83c0.41,0.75,0.95,1.33,1.62,1.74C371.08,43.32,371.9,43.53,372.87,43.53z"/>
		<path class="st0" d="M382.99,52.73V50.6l2.56-0.47V30.22l-2.73-0.47v-2.13h5.56l0.3,2.21c0.6-0.83,1.34-1.46,2.21-1.89
			c0.87-0.44,1.87-0.65,3.01-0.65c1.5,0,2.78,0.41,3.84,1.22c1.06,0.81,1.87,1.94,2.43,3.4c0.56,1.46,0.84,3.17,0.84,5.12v0.35
			c0,1.74-0.28,3.27-0.85,4.58c-0.56,1.31-1.37,2.33-2.42,3.06c-1.05,0.73-2.31,1.1-3.79,1.1c-1.12,0-2.1-0.19-2.94-0.56
			c-0.84-0.37-1.56-0.93-2.15-1.67v6.25l2.88,0.47v2.13H382.99z M392.93,43.53c1.56,0,2.75-0.57,3.55-1.71s1.21-2.62,1.21-4.44
			v-0.35c0-1.38-0.18-2.61-0.54-3.66c-0.36-1.06-0.89-1.89-1.6-2.49c-0.71-0.6-1.59-0.91-2.66-0.91c-0.94,0-1.74,0.21-2.41,0.64
			s-1.21,1.01-1.63,1.74v8.83c0.41,0.75,0.95,1.33,1.62,1.74C391.14,43.32,391.96,43.53,392.93,43.53z"/>
	</g>
</g>
</svg>
